<?xml version="1.0" encoding="UTF-8"?>
<svg width="51px" height="47px" viewBox="0 0 51 47" version="1.1" xmlns="http://www.w3.org/2000/svg" xmlns:xlink="http://www.w3.org/1999/xlink">
    <title>Stroke 1 Copy</title>
    <g id="Page-1" stroke="none" stroke-width="1" fill="none" fill-rule="evenodd" stroke-linecap="round" stroke-linejoin="round">
        <g id="Artboard" transform="translate(-2.000000, -4.000000)" stroke="#FFFFFF" stroke-width="4">
            <path d="M29.5398214,18.8534955 C25.86444,27.4794607 21.5867843,35.8358431 16.7404667,43.8622781 C15.4981905,45.9187905 13.9719263,48.1337601 11.6190785,48.6276523 C9.73748621,48.9260455 7.83257126,48.2469437 6.56628642,46.8242596 C5.33224177,45.4043194 4.52692302,43.6626633 4.24567883,41.8023359 C3.81969677,39.9186857 3.94934348,37.9520342 4.6215857,36.141096 C6.29464569,32.1398828 11.2829574,30.5271875 15.5983409,30.9614011 C19.9130384,31.3956147 23.9149375,33.3423733 28.1143935,34.4241345 C32.4112561,35.5278465 36.8912703,35.7219735 41.2670184,34.9934825 C43.907284,34.5524093 46.6380966,33.685354 48.4058192,31.674801 C50.1975505,29.6361235 50.6989884,26.7502837 50.6036397,24.0386781 C50.4472405,18.3301069 47.787768,12.9796076 43.3310764,9.40986416 C38.8661533,5.98828844 32.5601097,4.95523049 27.3872744,7.16745618 C21.0880904,9.86054084 17.392816,16.7105519 16.4647102,23.4988264 C16.1525977,25.7830781 14.9981246,32.137139 18.5843311,38.6613184 C20.4871881,42.2578143 23.4423101,45.1861837 27.055955,47.0561146 C35.668887,51.3666964 44.3929447,47.24544 45.5487898,46.676092" id="Stroke-1-Copy"></path>
        </g>
    </g>
</svg>