<svg xmlns="http://www.w3.org/2000/svg" viewBox="0 0 76 70.5877"><defs><style>.cdf66f47-a44c-4756-b8d3-60ff602e1d3d{fill:none;stroke:#58595b;stroke-linecap:round;stroke-linejoin:round;stroke-width:6px;}</style></defs><title>logo1Asset 5</title><g id="9aa8d555-b77c-43c6-8e5c-07fcf4bf6a7d" data-name="Layer 2"><g id="12358c79-77fa-4bd6-b729-64c950384885" data-name="Layer 1"><path class="cdf66f47-a44c-4756-b8d3-60ff602e1d3d" d="M41.3452,22.3069A300.7574,300.7574,0,0,1,22.12,59.87c-1.8656,3.0892-4.16,6.4171-7.6919,7.1586A8.4029,8.4029,0,0,1,6.8367,64.32a14.8986,14.8986,0,0,1-3.4848-7.5431,14.9573,14.9573,0,0,1,.5655-8.5039c2.5133-6.01,10.0051-8.4323,16.4864-7.78s12.492,3.5761,18.8,5.2012A47.8472,47.8472,0,0,0,58.96,46.55c3.9663-.6631,8.0666-1.9653,10.7222-4.9851,2.6923-3.0615,3.4446-7.3965,3.3011-11.4709A29.177,29.177,0,0,0,62.0614,8.1218C55.3531,2.983,45.882,1.4307,38.1121,4.753,28.65,8.7988,23.0994,19.0886,21.7059,29.2843c-.4688,3.43-2.2028,12.9753,3.1837,22.7748A29.9877,29.9877,0,0,0,37.6133,64.6678c12.9374,6.4752,26.042.2842,27.7781-.5708"/></g></g></svg>