<?xml version="1.0" encoding="UTF-8"?>
<svg width="206px" height="189px" viewBox="0 0 206 189" version="1.1" xmlns="http://www.w3.org/2000/svg" xmlns:xlink="http://www.w3.org/1999/xlink">
    <title>Group 3</title>
    <defs>
        <polygon id="path-1" points="0 0.000172684294 204.016 0.000172684294 204.016 188.700684 0 188.700684"></polygon>
    </defs>
    <g id="Page-1" stroke="none" stroke-width="1" fill="none" fill-rule="evenodd" opacity="0.218261719">
        <g id="Artboard" transform="translate(-180.000000, -806.000000)">
            <g id="Group-3" transform="translate(180.500000, 806.000000)">
                <mask id="mask-2" fill="white">
                    <use xlink:href="#path-1"></use>
                </mask>
                <g id="Clip-2"></g>
                <path d="M102.4523,108.711 C97.7293,108.165 95.9783,111.046 95.8263,115.885 C95.6443,121.681 98.3193,123.957 103.9793,123.815 C109.0303,123.692 111.0903,121.367 111.1983,116.442 C111.3243,110.655 108.7343,108.115 102.4523,108.711 M102.2813,30.68 C97.1753,34.546 85.0733,26.58 84.9823,35.974 C84.8913,44.894 96.6713,39.623 103.0643,40.333 C108.6813,40.958 118.7133,42.873 118.5713,35.52 C118.4253,27.765 108.4913,33.162 102.2813,30.68 M142.1093,27.665 C141.9573,14.396 140.7743,12.877 128.1133,12.692 C110.1223,12.428 92.1153,12.316 74.1303,12.739 C61.6943,13.029 55.5883,22.063 59.0053,33.701 C59.7723,36.32 61.0143,38.725 63.6243,39.303 C67.0703,40.069 67.3343,36.954 68.2873,34.607 C70.7983,28.401 73.3003,20.411 80.3753,19.825 C95.0433,18.614 110.0013,16.631 124.5523,21.86 C128.7933,23.383 132.0113,25.324 132.6653,29.991 C133.2403,34.097 133.6533,39.846 138.6193,38.978 C144.9193,37.878 140.8663,31.243 142.1093,27.665 M191.1263,70.08 C194.7693,55.042 186.1523,52.473 172.9323,52.593 C126.1333,53.026 79.3243,52.745 32.5153,52.769 C12.8523,52.78 11.8173,54.23 12.2753,73.784 C12.4393,80.826 15.0943,84.789 20.8843,88.605 C34.3763,97.492 49.3103,102.982 64.4723,107.491 C70.2763,109.216 78.1423,112.105 83.6063,103.687 C89.3113,94.902 112.5533,91.535 118.5303,99.847 C126.7873,111.315 135.4283,108.042 145.5093,105.596 C157.6513,102.646 168.4133,96.689 179.5763,91.518 C188.5753,87.35 193.4203,81.084 191.1263,70.08 M12.4483,99.959 C12.4483,121.487 12.6823,140.975 12.3483,160.456 C12.1963,169.557 16.4753,172.742 24.9643,174.408 C41.8793,177.726 58.8283,176.115 75.7083,175.966 C109.5853,175.666 143.5323,178.309 177.3413,173.839 C183.5893,173.012 190.9273,173.602 191.1303,165.134 C191.6403,143.969 191.3003,122.783 191.3003,101.604 C190.2263,100.93 189.1553,100.252 188.0823,99.574 C168.5713,120.073 135.8503,111.471 117.1843,134.223 C115.6803,136.059 111.4353,135.571 108.5063,136.328 C94.3303,139.983 87.1003,126.238 76.7313,123.391 C55.0983,117.448 34.2383,109.872 12.4483,99.959 M102.6813,188.654 C79.0163,188.654 55.3493,188.78 31.6863,188.618 C8.0433,188.46 0.0793,180.485 0.0413,157.279 C-0.0027,127.441 -0.0287,97.601 0.0533,67.763 C0.1123,45.592 5.1363,40.119 27.1393,40.775 C39.9723,41.16 47.4043,39.242 46.8143,23.491 C46.2783,9.126 56.9603,0.364 71.5813,0.194 C92.1563,-0.046 112.7413,-0.079 133.3133,0.185 C148.4303,0.376 155.2873,6.72 154.1873,22.042 C153.0673,37.611 159.4403,41.348 173.7953,40.849 C199.0963,39.972 203.9623,45.607 203.9793,71.391 C203.9973,100.715 204.0673,130.04 203.9503,159.367 C203.8703,180.046 195.5763,188.498 175.2213,188.618 C151.0403,188.763 126.8603,188.65 102.6813,188.654" id="Fill-1" fill="#F4E1E5" mask="url(#mask-2)"></path>
            </g>
        </g>
    </g>
</svg>